<svg xmlns="http://www.w3.org/2000/svg" xmlns:xlink="http://www.w3.org/1999/xlink" width="1000" zoomAndPan="magnify" viewBox="0 0 750 749.999995" height="1000" preserveAspectRatio="xMidYMid meet" version="1.0"><defs><clipPath id="5423c2e2ed"><path d="M 30.738281 148.882812 L 375 148.882812 L 375 601.132812 L 30.738281 601.132812 Z M 30.738281 148.882812 " clip-rule="nonzero"/></clipPath><clipPath id="1ba597de66"><path d="M 691 343 L 719.238281 343 L 719.238281 436 L 691 436 Z M 691 343 " clip-rule="nonzero"/></clipPath></defs><g clip-path="url(#5423c2e2ed)"><path fill="#005ac4" d="M 356.300781 382.703125 C 356.316406 379.066406 356.324219 375.429688 356.316406 371.792969 C 356.300781 364.964844 357.054688 363.941406 363.769531 363.957031 C 367.398438 363.957031 368.863281 362.429688 369.652344 359.160156 C 378.285156 323.46875 375.425781 288.3125 360.980469 254.996094 C 334.867188 194.757812 288.121094 160.285156 223.316406 150.53125 C 195.582031 146.363281 168.359375 150.257812 142.496094 160.324219 C 90.878906 180.414062 56.144531 217.039062 39.132812 270.035156 C 27.027344 307.738281 28.292969 345.414062 42.878906 381.8125 C 66.3125 440.289062 109.828125 475.785156 171.582031 488.597656 C 175.101562 489.324219 176.484375 490.449219 176.414062 494.09375 C 176.226562 503.035156 176.195312 511.980469 176.460938 520.914062 C 176.578125 524.839844 175.101562 525.746094 171.457031 525.667969 C 160.851562 525.449219 150.238281 525.621094 139.632812 525.550781 C 134.371094 525.519531 129.769531 527.003906 126.148438 530.929688 C 120.613281 536.921875 120.714844 555.808594 126.320312 561.707031 C 130.019531 565.59375 134.785156 566.804688 139.953125 566.828125 C 150.558594 566.882812 161.171875 567.0625 171.777344 566.859375 C 175.398438 566.789062 176.648438 567.871094 176.460938 571.484375 C 176.21875 576.167969 176.289062 580.882812 176.46875 585.574219 C 176.742188 592.777344 181.554688 598.566406 188.621094 600.105469 C 195.050781 601.507812 201.628906 601.234375 208.074219 600.441406 C 216.332031 599.425781 221.46875 593.359375 221.847656 584.941406 C 222.042969 580.554688 222.113281 576.144531 221.871094 571.765625 C 221.65625 567.949219 223.097656 566.804688 226.859375 566.890625 C 237.613281 567.140625 248.375 567.070312 259.136719 567.046875 C 270.726562 567.023438 277.015625 560.707031 277.1875 549.035156 C 277.21875 546.761719 277.25 544.492188 277.1875 542.21875 C 276.929688 531.996094 270.460938 525.660156 260.136719 525.613281 C 249.070312 525.558594 238.003906 525.363281 226.953125 525.722656 C 222.464844 525.871094 221.578125 524.246094 221.746094 520.246094 C 222.050781 512.832031 221.675781 505.386719 222.050781 497.980469 C 222.277344 493.609375 220.59375 492.492188 216.550781 492.648438 C 210.191406 492.898438 203.820312 492.804688 197.460938 492.664062 C 185.605469 492.398438 177.132812 484.320312 176.539062 472.5625 C 176.28125 467.425781 176.273438 462.25 176.617188 457.117188 C 177.179688 448.835938 181.433594 442.757812 189.140625 439.707031 C 192.492188 438.378906 193.230469 436.605469 193.183594 433.328125 C 192.949219 416.808594 192.917969 400.292969 192.894531 383.773438 C 192.894531 381.8125 192.398438 379.003906 195.738281 379.222656 C 198.773438 379.417969 197.90625 382.039062 197.914062 383.828125 C 197.9375 400.347656 197.992188 416.863281 197.757812 433.382812 C 197.703125 437.019531 198.796875 438.027344 202.316406 437.996094 C 205.695312 437.964844 207.144531 437.300781 207.089844 433.46875 C 206.859375 417.402344 206.898438 401.339844 207.03125 385.273438 C 207.046875 383.25 205.335938 379.449219 209.183594 379.550781 C 212.6875 379.644531 211.296875 383.34375 211.320312 385.480469 C 211.453125 401.691406 211.40625 417.902344 211.4375 434.125 C 211.4375 437.347656 213.390625 438.847656 215.753906 437.558594 C 217.519531 436.597656 216.925781 434.921875 216.902344 433.507812 C 216.605469 417.144531 216.402344 400.785156 216.957031 384.421875 C 217.003906 383 215.964844 380.394531 218.304688 380.394531 C 220.15625 380.394531 219.390625 382.875 219.398438 384.25 C 219.460938 398.648438 219.445312 413.046875 219.429688 427.4375 C 219.429688 429.863281 219.25 432.277344 219.3125 434.703125 C 219.34375 435.8125 219.046875 437.589844 220.625 437.644531 C 222.566406 437.707031 222.183594 435.835938 222.261719 434.554688 C 222.324219 433.5 222.285156 432.433594 222.277344 431.371094 C 222.183594 405.9375 222.074219 380.511719 222.011719 355.078125 C 221.996094 349.777344 222.035156 344.464844 222.269531 339.171875 C 222.394531 336.269531 221.570312 335.246094 218.453125 335.292969 C 206.023438 335.480469 193.597656 335.472656 181.175781 335.277344 C 177.941406 335.222656 177.226562 336.152344 177.046875 339.328125 C 176.804688 343.605469 179.410156 346.984375 179.832031 350.753906 C 180.582031 357.488281 180.050781 364.371094 179.980469 371.191406 C 179.972656 372.253906 180.519531 373.683594 178.746094 374.136719 C 175.640625 374.929688 175.710938 377.546875 176.429688 379.597656 C 177.367188 382.296875 177.210938 384.9375 177.21875 387.621094 C 177.257812 403.230469 177.148438 418.84375 177.320312 434.445312 C 177.359375 438.035156 176.171875 438.582031 173.027344 437.722656 C 165.738281 435.71875 158.683594 433.148438 151.832031 429.957031 C 103.179688 407.332031 72.234375 354 84.628906 294.796875 C 95.53125 242.699219 142.113281 203.464844 192.917969 200.507812 C 227.023438 198.519531 256.960938 207.59375 282.675781 230.070312 C 302.722656 247.589844 315.625 269.589844 320.898438 295.585938 C 325.167969 316.640625 324.628906 337.753906 317.417969 358.339844 C 316.429688 361.164062 316.0625 363.375 320.554688 362.78125 C 335.429688 360.820312 349.648438 366.277344 355.949219 384.976562 C 356.183594 383.570312 356.316406 383.132812 356.316406 382.703125 Z M 193.160156 370.296875 C 193.488281 374.5625 190.796875 374.214844 187.925781 374.363281 C 184.65625 374.53125 183.273438 373.574219 183.414062 370.054688 C 183.664062 363.871094 183.4375 357.660156 183.507812 351.457031 C 183.546875 348.140625 184.023438 344.574219 188.269531 344.550781 C 192.777344 344.527344 193.222656 348.210938 193.285156 351.707031 C 193.347656 354.726562 193.300781 357.753906 193.300781 360.78125 L 193.105469 360.78125 C 193.105469 363.957031 192.910156 367.148438 193.152344 370.296875 Z M 207.269531 368.359375 C 207.277344 374.898438 205.671875 376.109375 199.195312 374.828125 C 197.367188 374.460938 197.085938 373.410156 197.09375 371.957031 C 197.109375 364.699219 197.023438 357.449219 197.203125 350.191406 C 197.273438 347.257812 198.625 344.667969 201.964844 344.589844 C 205.507812 344.503906 207.023438 347 207.160156 350.222656 C 207.316406 353.992188 207.199219 357.777344 207.199219 361.554688 C 207.222656 361.554688 207.246094 361.554688 207.269531 361.554688 C 207.269531 363.824219 207.269531 366.089844 207.269531 368.359375 Z M 180.121094 383.414062 C 180.128906 382.070312 179.457031 379.949219 181.710938 379.800781 C 184.320312 379.628906 183.8125 381.945312 183.820312 383.445312 C 183.945312 400.683594 184.023438 417.917969 184.007812 435.15625 C 184.007812 436.738281 184.554688 439.371094 181.726562 439.152344 C 179.339844 438.964844 180.027344 436.660156 180.019531 435.125 C 179.964844 426.507812 179.996094 417.886719 179.996094 409.269531 L 180.082031 409.269531 C 180.082031 400.652344 180.042969 392.03125 180.121094 383.414062 Z M 211.09375 349.785156 C 211.179688 348.226562 211.679688 346.15625 213.710938 346.023438 C 216.042969 345.867188 216.808594 347.929688 216.847656 349.730469 C 217.035156 357.277344 217.105469 364.832031 216.964844 372.386719 C 216.925781 374.292969 215.441406 375.632812 213.257812 375.539062 C 210.929688 375.4375 210.84375 373.753906 210.851562 371.996094 C 210.875 368.515625 210.851562 365.042969 210.851562 361.5625 C 210.90625 361.5625 210.960938 361.5625 211.007812 361.5625 C 211.007812 357.636719 210.859375 353.703125 211.078125 349.785156 Z M 220.65625 348.835938 L 220.65625 373.722656 C 218.703125 365.386719 219.835938 357.121094 220.65625 348.835938 Z M 220.65625 348.835938 " fill-opacity="1" fill-rule="nonzero"/></g><path fill="#005ac4" d="M 234.34375 403.003906 C 234.34375 393.160156 234.46875 383.3125 234.273438 373.472656 C 234.203125 369.992188 235.195312 368.546875 238.839844 368.671875 C 244.886719 368.882812 250.957031 368.703125 257.007812 368.75 C 258.769531 368.765625 260.761719 368.429688 260.871094 371.277344 C 260.996094 374.453125 262.84375 373.785156 264.484375 372.527344 C 270.867188 367.648438 278.179688 367.367188 285.703125 368.109375 C 291.070312 368.640625 295.566406 371.105469 299.15625 374.984375 C 301.289062 377.296875 302.636719 377.242188 305.027344 375.164062 C 315.710938 365.910156 331.199219 364.863281 341.488281 372.472656 C 348.449219 377.617188 351.695312 384.859375 351.929688 393.238281 C 352.3125 406.703125 352.148438 420.1875 352.335938 433.664062 C 352.382812 436.878906 351 437.761719 347.191406 437.308594 C 341.371094 436.621094 335.507812 436.628906 329.671875 437.191406 C 325.621094 437.582031 324.238281 436.746094 324.292969 433.304688 C 324.449219 423.613281 324.386719 413.921875 324.332031 404.226562 C 324.324219 402.113281 324.175781 399.988281 323.832031 397.90625 C 323.132812 393.660156 320.710938 390.992188 316.234375 390.914062 C 311.871094 390.84375 309.253906 393.269531 308.054688 397.382812 C 307.195312 400.324219 307.023438 403.339844 307.03125 406.375 C 307.0625 415.308594 306.992188 424.246094 307.195312 433.179688 C 307.265625 436.335938 306.421875 437.683594 302.839844 437.457031 C 296.441406 437.058594 290.027344 436.972656 283.621094 437.269531 C 280.285156 437.425781 279.265625 436.195312 279.3125 433.195312 C 279.453125 423.957031 279.40625 414.722656 279.445312 405.484375 C 279.460938 402.597656 279.421875 399.726562 278.65625 396.921875 C 277.742188 393.542969 275.753906 391.34375 272.101562 390.953125 C 268.308594 390.539062 265.691406 392.265625 263.875 395.417969 C 262.546875 397.726562 262.351562 400.292969 262.351562 402.894531 C 262.359375 413.039062 262.25 423.191406 262.398438 433.335938 C 262.445312 436.480469 261.535156 437.691406 258.167969 437.527344 C 251.988281 437.238281 245.800781 437.152344 239.613281 437.433594 C 235.703125 437.613281 234.140625 436.582031 234.25 432.535156 C 234.515625 422.699219 234.335938 412.851562 234.335938 403.003906 L 234.320312 403.003906 Z M 234.34375 403.003906 " fill-opacity="1" fill-rule="nonzero"/><path fill="#a506ad" d="M 361.339844 403.003906 C 361.339844 393.160156 361.441406 383.3125 361.285156 373.464844 C 361.230469 370.007812 362.238281 368.539062 365.921875 368.664062 C 371.976562 368.867188 378.035156 368.648438 384.097656 368.59375 C 386.023438 368.578125 387.875 368.703125 388.046875 371.230469 C 388.226562 373.949219 389.40625 373.652344 391.261719 372.550781 C 403.84375 365.089844 415.914062 365.152344 427.074219 375.390625 C 429.113281 377.257812 430.460938 376.40625 432.09375 374.945312 C 437.898438 369.773438 444.726562 367.46875 452.5 367.554688 C 467.023438 367.71875 477.128906 376.148438 478.582031 390.679688 C 480.035156 405.15625 478.777344 419.75 479.222656 434.28125 C 479.292969 436.496094 478.074219 437.089844 475.75 436.902344 C 468.828125 436.335938 461.875 436.195312 454.960938 436.902344 C 451.105469 437.292969 451.324219 435.117188 451.324219 432.945312 C 451.339844 423.855469 451.386719 414.769531 451.339844 405.671875 C 451.324219 403.105469 451.152344 400.527344 450.886719 397.96875 C 450.480469 394.074219 448.433594 391.460938 444.445312 390.835938 C 440.039062 390.148438 437.109375 392.351562 435.488281 396.207031 C 434.378906 398.859375 434.097656 401.761719 434.113281 404.679688 C 434.167969 414.070312 434.035156 423.464844 434.214844 432.859375 C 434.285156 436.511719 432.789062 437.292969 428.699219 436.910156 C 422.960938 436.375 417.195312 436.414062 411.457031 436.964844 C 407.425781 437.347656 406.277344 436.234375 406.332031 432.835938 C 406.488281 423.292969 406.449219 413.742188 406.386719 404.203125 C 406.371094 401.792969 406.175781 399.34375 405.738281 396.984375 C 405.097656 393.535156 403.054688 391.304688 399.386719 390.84375 C 395.617188 390.367188 392.863281 391.867188 391.160156 395.175781 C 389.597656 398.203125 389.234375 401.527344 389.234375 404.890625 C 389.234375 414.28125 389.164062 423.675781 389.34375 433.070312 C 389.402344 436.054688 388.617188 437.222656 385.253906 437.042969 C 378.6875 436.691406 372.101562 436.871094 365.53125 437.089844 C 362.003906 437.207031 361.308594 435.75 361.371094 432.542969 C 361.550781 422.699219 361.433594 412.851562 361.433594 403.003906 C 361.402344 403.003906 361.363281 403.003906 361.332031 403.003906 Z M 361.339844 403.003906 " fill-opacity="1" fill-rule="nonzero"/><path fill="#a506ad" d="M 563.335938 403.003906 C 563.335938 412.84375 563.203125 422.691406 563.40625 432.519531 C 563.484375 436.195312 562.132812 437.238281 558.636719 437.105469 C 552.589844 436.878906 546.53125 437.074219 540.46875 437.035156 C 539.03125 437.027344 537.003906 437.457031 536.785156 435.382812 C 536.363281 431.261719 534.734375 432.738281 532.398438 433.898438 C 514.730469 442.664062 491.28125 437.496094 488.882812 412.984375 C 487.550781 399.367188 488.703125 385.761719 488.117188 372.160156 C 487.976562 368.9375 490.140625 368.5625 493.566406 368.90625 C 499.136719 369.460938 504.75 369.554688 510.289062 368.773438 C 515.027344 368.109375 516.425781 369.21875 516.347656 372.902344 C 516.152344 381.984375 516.214844 391.070312 516.199219 400.152344 C 516.199219 403.285156 516.253906 406.40625 517.242188 409.488281 C 518.273438 412.710938 521.292969 414.941406 524.679688 415.058594 C 528.777344 415.199219 532.109375 413.476562 533.773438 409.347656 C 534.921875 406.5 535.316406 403.519531 535.308594 400.464844 C 535.269531 391.226562 535.371094 381.992188 535.222656 372.761719 C 535.171875 369.625 536.253906 368.554688 539.828125 368.789062 C 546.203125 369.203125 552.597656 369.03125 558.972656 368.59375 C 562.351562 368.359375 563.492188 369.429688 563.445312 372.574219 C 563.304688 382.71875 563.390625 392.863281 563.390625 403.003906 Z M 563.335938 403.003906 " fill-opacity="1" fill-rule="nonzero"/><path fill="#a506ad" d="M 660.972656 407.738281 C 667.636719 407.738281 674.308594 407.722656 680.96875 407.746094 C 682.917969 407.753906 684.582031 407.683594 684.753906 405.054688 C 685.625 391.976562 682.292969 380.660156 670.945312 372.933594 C 659.636719 365.230469 647.261719 364.589844 634.414062 368.0625 C 611.722656 374.183594 601.699219 401.003906 614.804688 420.5 C 626.378906 437.714844 658.101562 442.640625 675.472656 429.917969 C 680.03125 426.578125 680.054688 426.203125 675.941406 422.105469 C 674.230469 420.390625 672.328125 418.835938 670.835938 416.941406 C 667.628906 412.890625 664.445312 412.179688 659.636719 414.894531 C 653.527344 418.34375 644.273438 416.871094 640.027344 412.789062 C 638.941406 411.75 637.445312 410.660156 637.964844 409.019531 C 638.542969 407.164062 640.464844 407.707031 641.90625 407.691406 C 648.261719 407.644531 654.628906 407.667969 660.988281 407.667969 C 660.988281 407.683594 660.988281 407.707031 660.988281 407.722656 Z M 658.390625 391.429688 C 659.257812 393.566406 659.09375 395.011719 656.359375 395.019531 C 650.773438 395.035156 645.199219 395.027344 639.613281 395.042969 C 636.960938 395.042969 636.585938 393.746094 637.425781 391.515625 C 639.058594 387.175781 643.632812 384.296875 646.527344 384.484375 C 653.136719 385.03125 656.59375 387.003906 658.398438 391.429688 Z M 658.390625 391.429688 " fill-opacity="1" fill-rule="nonzero"/><g clip-path="url(#1ba597de66)"><path fill="#a506ad" d="M 719.035156 388.925781 C 719.035156 403.003906 718.957031 417.082031 719.097656 431.160156 C 719.128906 434.492188 718.105469 435.570312 714.320312 435.273438 C 708.515625 434.8125 702.679688 434.71875 696.878906 435.171875 C 692.96875 435.476562 691.019531 435.023438 691.035156 431.222656 C 691.136719 403.066406 691.152344 374.914062 691.097656 346.757812 C 691.097656 342.917969 693.171875 342.714844 698.199219 343.386719 C 703.230469 344.058594 708.375 343.949219 713.417969 343.183594 C 718.160156 342.457031 719.089844 343.886719 719.066406 347.15625 C 718.972656 361.085938 719.027344 375.007812 719.027344 388.933594 L 719.050781 388.933594 Z M 719.035156 388.925781 " fill-opacity="1" fill-rule="nonzero"/></g><path fill="#a506ad" d="M 573.871094 403.003906 C 573.871094 393.324219 574.082031 383.632812 573.777344 373.964844 C 573.589844 367.9375 576.695312 367.9375 585.304688 369.359375 C 587.644531 369.742188 590.027344 369.734375 592.367188 369.34375 C 604.609375 367.320312 602.878906 368.625 598.898438 390.4375 C 597.304688 399.1875 597.351562 408.167969 599.007812 416.910156 C 602.722656 436.40625 604.457031 438.558594 593.109375 436.535156 C 590.601562 436.085938 588.019531 436.046875 585.492188 436.390625 C 576.859375 437.582031 573.707031 438.535156 573.808594 433.421875 C 574.011719 423.292969 573.886719 413.148438 573.886719 403.011719 L 573.863281 403.011719 Z M 573.871094 403.003906 " fill-opacity="1" fill-rule="nonzero"/><path fill="#005ac4" d="M 174.742188 289.242188 C 174.773438 275.664062 185.300781 266.09375 200.207031 266.09375 C 215.386719 266.09375 225.757812 275.421875 225.710938 289.03125 C 225.664062 302.71875 214.335938 313.050781 199.585938 312.871094 C 185.667969 312.699219 174.71875 302.28125 174.742188 289.234375 Z M 174.742188 289.242188 " fill-opacity="1" fill-rule="nonzero"/><path fill="#a506ad" d="M 601.753906 507.804688 C 601.753906 511.738281 601.941406 515.6875 601.722656 519.613281 C 600.972656 532.714844 593.039062 542.179688 580.292969 544.921875 C 573.097656 546.472656 565.855469 546.082031 558.699219 544.203125 C 555.65625 543.40625 554.523438 542.050781 556.4375 538.21875 C 558.042969 535.03125 559.222656 531.644531 559.886719 528.132812 C 560.550781 524.621094 561.914062 524.042969 564.621094 524.402344 C 571.40625 525.300781 573.785156 523.179688 573.886719 516.304688 C 573.980469 509.800781 574.003906 503.285156 573.886719 496.769531 C 573.824219 493.304688 575.292969 492.125 579.457031 492.570312 C 585.320312 493.195312 591.234375 493.070312 597.105469 492.460938 C 601.074219 492.054688 602.042969 493.304688 601.886719 496.433594 C 601.699219 500.210938 601.839844 504.003906 601.839844 507.789062 C 601.816406 507.789062 601.785156 507.789062 601.761719 507.789062 Z M 601.753906 507.804688 " fill-opacity="1" fill-rule="nonzero"/><path fill="#a506ad" d="M 589.097656 360.609375 C 575.246094 360.320312 566.144531 352.144531 566.425781 339.9375 C 566.613281 331.835938 570.859375 326.234375 577.96875 322.925781 C 585.304688 319.507812 592.945312 319.460938 600.429688 322.535156 C 608.597656 325.882812 613.398438 333.554688 612.5625 341.390625 C 611.542969 350.855469 605.554688 357.636719 596.261719 359.644531 C 593.917969 360.15625 591.484375 360.296875 589.097656 360.609375 Z M 589.097656 360.609375 " fill-opacity="1" fill-rule="nonzero"/><path fill="#005ac4" d="M 179.644531 332.617188 C 184.414062 327.316406 191.132812 325.710938 196.992188 322.644531 C 198.179688 322.027344 200.230469 321.988281 201.402344 322.597656 C 207.449219 325.726562 214.527344 326.921875 219.757812 332.625 L 179.644531 332.625 Z M 179.644531 332.617188 " fill-opacity="1" fill-rule="nonzero"/><path fill="#005ac4" d="M 575.339844 463.898438 C 573.785156 463.898438 572.667969 464.84375 572.425781 466.355469 L 578.242188 466.355469 C 578 464.859375 576.882812 463.898438 575.347656 463.898438 Z M 575.339844 463.898438 " fill-opacity="1" fill-rule="nonzero"/><path fill="#005ac4" d="M 560.371094 464.132812 C 558.660156 464.132812 557.347656 465.359375 557.347656 467.402344 C 557.347656 469.445312 558.660156 470.671875 560.371094 470.671875 C 562.085938 470.671875 563.382812 469.445312 563.382812 467.402344 C 563.382812 465.359375 562.070312 464.132812 560.371094 464.132812 Z M 560.371094 464.132812 " fill-opacity="1" fill-rule="nonzero"/><path fill="#005ac4" d="M 424.4375 464.132812 C 422.726562 464.132812 421.410156 465.359375 421.410156 467.402344 C 421.410156 469.445312 422.726562 470.671875 424.4375 470.671875 C 426.152344 470.671875 427.449219 469.445312 427.449219 467.402344 C 427.449219 465.359375 426.136719 464.132812 424.4375 464.132812 Z M 424.4375 464.132812 " fill-opacity="1" fill-rule="nonzero"/><path fill="#005ac4" d="M 605.679688 470.085938 C 605.679688 470.9375 606.40625 471.507812 607.609375 471.507812 C 608.753906 471.507812 609.738281 470.984375 610.136719 469.90625 L 610.136719 468.699219 L 607.789062 468.699219 C 606.1875 468.699219 605.6875 469.296875 605.6875 470.085938 Z M 605.679688 470.085938 " fill-opacity="1" fill-rule="nonzero"/><path fill="#005ac4" d="M 622.71875 464.132812 C 620.921875 464.132812 619.601562 465.296875 619.601562 467.035156 C 619.601562 468.769531 620.914062 469.929688 622.71875 469.929688 C 624.527344 469.929688 625.816406 468.761719 625.816406 467.035156 C 625.816406 465.304688 624.519531 464.132812 622.71875 464.132812 Z M 622.71875 464.132812 " fill-opacity="1" fill-rule="nonzero"/><path fill="#005ac4" d="M 283.074219 464.132812 C 281.363281 464.132812 280.050781 465.359375 280.050781 467.402344 C 280.050781 469.445312 281.363281 470.671875 283.074219 470.671875 C 284.789062 470.671875 286.085938 469.445312 286.085938 467.402344 C 286.085938 465.359375 284.789062 464.132812 283.074219 464.132812 Z M 283.074219 464.132812 " fill-opacity="1" fill-rule="nonzero"/><path fill="#005ac4" d="M 439.398438 463.898438 C 437.84375 463.898438 436.722656 464.84375 436.480469 466.355469 L 442.300781 466.355469 C 442.058594 464.859375 440.941406 463.898438 439.40625 463.898438 Z M 439.398438 463.898438 " fill-opacity="1" fill-rule="nonzero"/><path fill="#005ac4" d="M 463.339844 470.085938 C 463.339844 470.9375 464.066406 471.507812 465.269531 471.507812 C 466.414062 471.507812 467.398438 470.984375 467.796875 469.90625 L 467.796875 468.699219 L 465.449219 468.699219 C 463.847656 468.699219 463.347656 469.296875 463.347656 470.085938 Z M 463.339844 470.085938 " fill-opacity="1" fill-rule="nonzero"/><path fill="#005ac4" d="M 395.296875 470.085938 C 395.296875 470.9375 396.023438 471.507812 397.230469 471.507812 C 398.371094 471.507812 399.355469 470.984375 399.753906 469.90625 L 399.753906 468.699219 L 397.410156 468.699219 C 395.804688 468.699219 395.304688 469.296875 395.304688 470.085938 Z M 395.296875 470.085938 " fill-opacity="1" fill-rule="nonzero"/><path fill="#005ac4" d="M 530.644531 463.898438 C 529.089844 463.898438 527.96875 464.84375 527.726562 466.355469 L 533.546875 466.355469 C 533.304688 464.859375 532.1875 463.898438 530.652344 463.898438 Z M 530.644531 463.898438 " fill-opacity="1" fill-rule="nonzero"/><path fill="#005ac4" d="M 383.863281 464.132812 C 382.152344 464.132812 380.859375 465.359375 380.859375 467.402344 C 380.859375 469.445312 382.152344 470.671875 383.863281 470.671875 C 385.574219 470.671875 386.867188 469.445312 386.867188 467.402344 C 386.867188 465.359375 385.566406 464.132812 383.863281 464.132812 Z M 383.863281 464.132812 " fill-opacity="1" fill-rule="nonzero"/><path fill="#005ac4" d="M 712.910156 447.820312 C 708.710938 443.53125 703.441406 443 697.832031 443 C 620.992188 443.015625 544.152344 442.984375 467.3125 442.929688 C 387.289062 442.867188 307.265625 442.773438 227.242188 442.671875 C 217.542969 442.65625 207.839844 442.304688 198.148438 442.515625 C 187.277344 442.75 181.144531 449.210938 180.972656 460.050781 C 180.917969 463.382812 180.933594 466.722656 180.972656 470.054688 C 181.121094 481.355469 187.503906 487.800781 198.828125 487.785156 C 210.496094 487.769531 222.167969 487.375 233.828125 487.367188 C 305.820312 487.328125 377.808594 487.34375 449.800781 487.34375 L 449.800781 487.3125 C 482.390625 487.3125 514.972656 487.335938 547.554688 487.3125 C 598.476562 487.265625 649.40625 487.171875 700.328125 487.15625 C 704.730469 487.15625 708.710938 486.414062 712.066406 483.292969 C 719.371094 476.507812 719.886719 454.953125 712.902344 447.828125 Z M 197.195312 473.394531 L 193.285156 473.394531 L 193.285156 457.75 L 197.195312 457.75 Z M 212.835938 473.394531 L 209.707031 473.394531 L 209.707031 467.160156 C 209.707031 465.25 208.785156 464.375 207.199219 464.375 C 205.46875 464.375 204.234375 465.382812 204.234375 467.558594 L 204.234375 473.394531 L 201.105469 473.394531 L 201.105469 461.660156 L 204.234375 461.660156 L 204.234375 463.039062 C 205.132812 462.039062 206.484375 461.488281 208.050781 461.488281 C 210.773438 461.488281 212.835938 463.101562 212.835938 466.683594 L 212.835938 473.402344 Z M 219.835938 473.488281 C 217.839844 473.488281 215.816406 472.941406 214.722656 472.210938 L 215.863281 469.757812 C 216.917969 470.4375 218.523438 470.898438 219.96875 470.898438 C 221.546875 470.898438 222.144531 470.484375 222.144531 469.828125 C 222.144531 467.894531 215.011719 469.875 215.011719 465.148438 C 215.011719 462.914062 217.027344 461.332031 220.476562 461.332031 C 222.105469 461.332031 223.902344 461.707031 225.019531 462.367188 L 223.878906 464.796875 C 222.714844 464.140625 221.554688 463.921875 220.476562 463.921875 C 218.945312 463.921875 218.28125 464.40625 218.28125 465.015625 C 218.28125 467.035156 225.414062 465.078125 225.414062 469.734375 C 225.414062 471.929688 223.371094 473.488281 219.835938 473.488281 Z M 231.722656 473.097656 C 229.175781 473.097656 227.695312 471.671875 227.695312 468.855469 L 227.695312 464.007812 L 226.132812 464.007812 L 226.132812 461.660156 L 227.695312 461.660156 L 227.695312 458.535156 L 230.824219 458.535156 L 230.824219 461.660156 L 233.953125 461.660156 L 233.953125 464.007812 L 230.824219 464.007812 L 230.824219 468.816406 C 230.824219 469.828125 231.324219 470.375 232.167969 470.375 C 232.632812 470.375 233.09375 470.21875 233.4375 469.9375 L 234.28125 472.351562 C 233.640625 472.859375 232.695312 473.097656 231.730469 473.097656 Z M 240.210938 473.394531 L 237.082031 473.394531 L 237.082031 461.660156 L 240.210938 461.660156 Z M 238.769531 459.855469 C 237.496094 459.855469 236.644531 459.019531 236.644531 457.945312 C 236.644531 456.875 237.496094 456.039062 238.769531 456.039062 C 240.046875 456.039062 240.898438 456.828125 240.898438 457.882812 C 240.898438 459.027344 240.046875 459.863281 238.769531 459.863281 Z M 248.148438 473.097656 C 245.597656 473.097656 244.121094 471.671875 244.121094 468.855469 L 244.121094 464.007812 L 242.554688 464.007812 L 242.554688 461.660156 L 244.121094 461.660156 L 244.121094 458.535156 L 247.25 458.535156 L 247.25 461.660156 L 250.375 461.660156 L 250.375 464.007812 L 247.25 464.007812 L 247.25 468.816406 C 247.25 469.828125 247.75 470.375 248.59375 470.375 C 249.054688 470.375 249.515625 470.21875 249.859375 469.9375 L 250.703125 472.351562 C 250.0625 472.859375 249.117188 473.097656 248.15625 473.097656 Z M 265.234375 473.394531 L 262.109375 473.394531 L 262.109375 472 C 261.214844 473.027344 259.917969 473.574219 258.488281 473.574219 C 255.5625 473.574219 253.503906 471.914062 253.503906 468.292969 L 253.503906 461.660156 L 256.632812 461.660156 L 256.632812 467.832031 C 256.632812 469.8125 257.570312 470.6875 259.199219 470.6875 C 260.824219 470.6875 262.109375 469.679688 262.109375 467.503906 L 262.109375 461.667969 L 265.234375 461.667969 L 265.234375 473.402344 Z M 273.175781 473.097656 C 270.625 473.097656 269.148438 471.671875 269.148438 468.855469 L 269.148438 464.007812 L 266.800781 464.007812 L 266.800781 461.660156 L 269.148438 461.660156 L 269.148438 458.535156 L 272.273438 458.535156 L 272.273438 461.660156 L 275.402344 461.660156 L 275.402344 464.007812 L 272.273438 464.007812 L 272.273438 468.816406 C 272.273438 469.828125 272.777344 470.375 273.621094 470.375 C 274.082031 470.375 274.542969 470.21875 274.886719 469.9375 L 275.730469 472.351562 C 275.089844 472.859375 274.144531 473.097656 273.183594 473.097656 Z M 283.074219 473.488281 C 279.320312 473.488281 276.578125 470.960938 276.578125 467.410156 C 276.578125 463.859375 279.320312 461.332031 283.074219 461.332031 C 286.828125 461.332031 289.550781 463.859375 289.550781 467.410156 C 289.550781 470.960938 286.828125 473.488281 283.074219 473.488281 Z M 317.636719 473.394531 L 314.507812 473.394531 L 314.507812 467.160156 C 314.507812 465.25 313.679688 464.375 312.339844 464.375 C 310.855469 464.375 309.816406 465.359375 309.816406 467.472656 L 309.816406 473.402344 L 305.90625 473.402344 L 305.90625 467.167969 C 305.90625 465.257812 305.113281 464.382812 303.730469 464.382812 C 302.261719 464.382812 301.210938 465.367188 301.210938 467.480469 L 301.210938 473.410156 L 298.082031 473.410156 L 298.082031 461.675781 L 301.210938 461.675781 L 301.210938 463.03125 C 302.082031 462.03125 303.371094 461.503906 304.863281 461.503906 C 306.484375 461.503906 307.867188 462.140625 308.6875 463.421875 C 309.621094 462.226562 311.128906 461.503906 312.882812 461.503906 C 315.648438 461.503906 317.636719 463.117188 317.636719 466.699219 L 317.636719 473.417969 Z M 332.496094 473.394531 L 329.367188 473.394531 L 329.367188 472 C 328.476562 473.027344 327.175781 473.574219 325.746094 473.574219 C 322.820312 473.574219 320.765625 471.914062 320.765625 468.292969 L 320.765625 461.660156 L 323.894531 461.660156 L 323.894531 467.832031 C 323.894531 469.8125 324.832031 470.6875 326.449219 470.6875 C 328.070312 470.6875 329.367188 469.679688 329.367188 467.503906 L 329.367188 461.667969 L 332.496094 461.667969 L 332.496094 473.402344 Z M 348.136719 473.394531 L 345.007812 473.394531 L 345.007812 467.160156 C 345.007812 465.25 344.085938 464.375 342.5 464.375 C 340.769531 464.375 339.535156 465.382812 339.535156 467.558594 L 339.535156 473.394531 L 336.40625 473.394531 L 336.40625 461.660156 L 339.535156 461.660156 L 339.535156 463.039062 C 340.433594 462.039062 341.785156 461.488281 343.351562 461.488281 C 346.074219 461.488281 348.136719 463.101562 348.136719 466.683594 L 348.136719 473.402344 Z M 354.394531 473.394531 L 351.265625 473.394531 L 351.265625 461.660156 L 354.394531 461.660156 Z M 353.011719 459.855469 C 351.734375 459.855469 350.882812 459.019531 350.882812 457.945312 C 350.882812 456.875 351.734375 456.039062 353.011719 456.039062 C 354.285156 456.039062 355.136719 456.828125 355.136719 457.882812 C 355.136719 459.027344 354.285156 459.863281 353.011719 459.863281 Z M 363.589844 470.671875 C 364.671875 470.671875 365.609375 470.1875 366.25 469.042969 L 368.910156 470.492188 C 368.058594 472.375 366.101562 473.480469 363.621094 473.480469 C 359.78125 473.480469 357.039062 470.953125 357.039062 467.402344 C 357.039062 463.851562 359.78125 461.324219 363.621094 461.324219 C 366.101562 461.324219 368.058594 462.40625 368.910156 464.335938 L 366.25 465.761719 C 365.617188 464.640625 364.671875 464.132812 363.589844 464.132812 C 361.855469 464.132812 360.496094 465.335938 360.496094 467.402344 C 360.496094 469.46875 361.855469 470.671875 363.589844 470.671875 Z M 373.945312 473.394531 L 370.816406 473.394531 L 370.816406 461.660156 L 373.945312 461.660156 Z M 372.585938 459.855469 C 371.3125 459.855469 370.457031 459.019531 370.457031 457.945312 C 370.457031 456.875 371.3125 456.039062 372.585938 456.039062 C 373.859375 456.039062 374.710938 456.828125 374.710938 457.882812 C 374.710938 459.027344 373.859375 459.863281 372.585938 459.863281 Z M 384.457031 473.488281 C 382.988281 473.488281 380.984375 472.0625 380.984375 472.0625 L 380.984375 478.09375 L 377.855469 478.09375 L 377.855469 461.667969 L 380.203125 461.667969 L 380.203125 462.867188 C 381.601562 461.832031 382.878906 461.324219 384.457031 461.324219 C 387.773438 461.324219 390.339844 463.695312 390.339844 467.402344 C 390.339844 471.109375 387.773438 473.480469 384.457031 473.480469 Z M 402.882812 473.394531 L 399.753906 473.394531 L 399.753906 471.898438 C 399.128906 472.996094 397.933594 473.574219 396.242188 473.574219 C 393.546875 473.574219 391.933594 472.015625 391.933594 469.945312 C 391.933594 467.871094 393.375 466.355469 396.886719 466.355469 L 399.542969 466.355469 C 399.542969 464.859375 398.683594 463.992188 396.886719 463.992188 C 395.664062 463.992188 394.398438 464.414062 393.5625 465.101562 L 392.363281 462.671875 C 393.632812 461.730469 395.492188 461.222656 397.339844 461.222656 C 400.851562 461.222656 402.890625 462.914062 402.890625 466.550781 L 402.890625 473.386719 Z M 409.140625 473.394531 L 406.011719 473.394531 L 406.011719 456.96875 L 409.140625 456.96875 Z M 431.039062 473.394531 L 427.128906 473.394531 L 427.128906 471.945312 C 426.675781 472.980469 425.421875 473.480469 423.84375 473.480469 C 420.503906 473.480469 417.9375 471.109375 417.9375 467.402344 C 417.9375 463.695312 420.503906 461.324219 423.84375 461.324219 C 425.289062 461.324219 427.128906 462.75 427.128906 462.75 L 427.128906 456.96875 L 431.039062 456.96875 Z M 445.460938 468.699219 L 436.527344 468.699219 C 436.859375 470.171875 438.109375 471.070312 439.90625 471.070312 C 441.160156 471.070312 442.058594 470.695312 442.871094 469.929688 L 444.695312 471.90625 C 443.597656 473.160156 441.949219 473.816406 439.820312 473.816406 C 435.738281 473.816406 433.078125 471.25 433.078125 467.738281 C 433.078125 464.226562 435.777344 461.660156 439.375 461.660156 C 442.972656 461.660156 445.523438 463.984375 445.523438 467.785156 C 445.523438 468.050781 445.476562 468.417969 445.460938 468.707031 Z M 457.628906 473.394531 L 454.5 473.394531 L 454.5 456.96875 L 457.628906 456.96875 Z M 470.925781 473.394531 L 467.796875 473.394531 L 467.796875 471.898438 C 467.171875 472.996094 465.972656 473.574219 464.285156 473.574219 C 461.585938 473.574219 459.976562 472.015625 459.976562 469.945312 C 459.976562 467.871094 461.414062 466.355469 464.925781 466.355469 L 467.585938 466.355469 C 467.585938 464.859375 466.726562 463.992188 464.925781 463.992188 C 463.707031 463.992188 462.441406 464.414062 461.601562 465.101562 L 460.40625 462.671875 C 461.671875 461.730469 463.535156 461.222656 465.378906 461.222656 C 468.890625 461.222656 470.933594 462.914062 470.933594 466.550781 L 470.933594 473.386719 Z M 499.863281 473.394531 L 496.734375 473.394531 L 496.734375 467.160156 C 496.734375 465.25 495.90625 464.375 494.566406 464.375 C 493.082031 464.375 492.042969 465.359375 492.042969 467.472656 L 492.042969 473.402344 L 488.914062 473.402344 L 488.914062 467.167969 C 488.914062 465.257812 488.125 464.382812 486.738281 464.382812 C 485.269531 464.382812 484.21875 465.367188 484.21875 467.480469 L 484.21875 473.410156 L 480.308594 473.410156 L 480.308594 461.675781 L 483.4375 461.675781 L 483.4375 463.03125 C 484.308594 462.03125 485.597656 461.503906 487.089844 461.503906 C 488.710938 461.503906 490.09375 462.140625 490.914062 463.421875 C 491.847656 462.226562 493.355469 461.503906 495.105469 461.503906 C 497.875 461.503906 499.863281 463.117188 499.863281 466.699219 L 499.863281 473.417969 Z M 507.972656 473.574219 C 505.046875 473.574219 502.992188 471.914062 502.992188 468.292969 L 502.992188 461.660156 L 506.902344 461.660156 L 506.902344 467.832031 C 506.902344 469.8125 507.839844 470.6875 509.457031 470.6875 C 511.078125 470.6875 512.375 469.679688 512.375 467.503906 L 512.375 461.667969 L 515.503906 461.667969 L 515.503906 473.402344 L 511.59375 473.402344 L 511.59375 472.007812 C 510.703125 473.035156 509.402344 473.582031 507.972656 473.582031 Z M 521.761719 473.449219 C 521.761719 476.167969 520.296875 477.90625 517.695312 477.90625 C 516.730469 477.90625 515.785156 477.710938 515.183594 477.25 L 516.027344 474.769531 C 516.363281 475.035156 516.824219 475.183594 517.351562 475.183594 C 518.132812 475.183594 518.632812 474.636719 518.632812 473.472656 L 518.632812 461.660156 L 521.761719 461.660156 Z M 520.328125 459.855469 C 519.054688 459.855469 518.203125 459.019531 518.203125 457.945312 C 518.203125 456.875 519.054688 456.039062 520.328125 456.039062 C 521.605469 456.039062 522.457031 456.828125 522.457031 457.882812 C 522.457031 459.027344 521.605469 459.863281 520.328125 459.863281 Z M 536.699219 468.699219 L 527.765625 468.699219 C 528.097656 470.171875 529.347656 471.070312 531.144531 471.070312 C 532.398438 471.070312 533.296875 470.695312 534.109375 469.929688 L 535.933594 471.90625 C 534.835938 473.160156 533.1875 473.816406 531.058594 473.816406 C 526.976562 473.816406 524.316406 471.25 524.316406 467.738281 C 524.316406 464.226562 527.015625 461.660156 530.613281 461.660156 C 534.210938 461.660156 536.761719 463.984375 536.761719 467.785156 C 536.761719 468.050781 536.714844 468.417969 536.699219 468.707031 Z M 546.003906 464.484375 C 545.714844 464.460938 545.496094 464.4375 545.238281 464.4375 C 543.347656 464.4375 542.09375 465.46875 542.09375 467.730469 L 542.09375 473.394531 L 538.96875 473.394531 L 538.96875 461.660156 L 542.09375 461.660156 L 542.09375 463.21875 C 542.902344 462.078125 544.253906 461.480469 546.003906 461.480469 Z M 567.121094 473.394531 L 563.210938 473.394531 L 563.210938 471.945312 C 562.617188 472.980469 561.367188 473.480469 559.785156 473.480469 C 556.445312 473.480469 553.882812 471.109375 553.882812 467.402344 C 553.882812 463.695312 556.445312 461.324219 559.785156 461.324219 C 561.234375 461.324219 563.992188 462.75 563.992188 462.75 L 563.992188 456.96875 L 567.121094 456.96875 Z M 581.402344 468.699219 L 572.472656 468.699219 C 572.800781 470.171875 574.050781 471.070312 575.851562 471.070312 C 577.101562 471.070312 578 470.695312 578.8125 469.929688 L 580.636719 471.90625 C 579.542969 473.160156 577.890625 473.816406 575.765625 473.816406 C 571.679688 473.816406 569.023438 471.25 569.023438 467.738281 C 569.023438 464.226562 571.71875 461.660156 575.316406 461.660156 C 578.914062 461.660156 581.464844 463.984375 581.464844 467.785156 C 581.464844 468.050781 581.417969 468.417969 581.402344 468.707031 Z M 601.535156 473.394531 L 589.800781 473.394531 L 589.800781 457.75 L 593.714844 457.75 L 593.714844 470.265625 L 601.535156 470.265625 Z M 614.046875 473.394531 L 610.917969 473.394531 L 610.917969 471.898438 C 610.292969 472.996094 609.097656 473.574219 607.40625 473.574219 C 604.710938 473.574219 603.097656 472.015625 603.097656 469.945312 C 603.097656 467.871094 604.535156 466.355469 608.046875 466.355469 L 610.707031 466.355469 C 610.707031 464.859375 609.847656 463.992188 608.046875 463.992188 C 606.828125 463.992188 605.5625 464.414062 604.726562 465.101562 L 603.527344 462.671875 C 604.796875 461.730469 606.65625 461.222656 608.503906 461.222656 C 612.015625 461.222656 614.054688 462.914062 614.054688 466.550781 L 614.054688 473.386719 Z M 628.90625 471.5 C 628.90625 475.886719 626.742188 477.90625 622.855469 477.90625 C 620.804688 477.90625 618.824219 477.359375 617.558594 476.277344 L 618.800781 473.824219 C 619.726562 474.636719 621.226562 475.160156 622.609375 475.160156 C 624.816406 475.160156 625.777344 474.066406 625.777344 471.929688 L 625.777344 471.257812 C 625.777344 471.257812 623.574219 472.726562 622.03125 472.726562 C 618.761719 472.726562 616.128906 470.46875 616.128906 467.019531 C 616.128906 463.570312 618.761719 461.308594 622.03125 461.308594 C 623.675781 461.308594 625.042969 461.855469 626.5625 463 L 626.5625 461.644531 L 628.90625 461.644531 Z M 643.765625 473.394531 L 640.636719 473.394531 L 640.636719 472 C 639.746094 473.027344 638.449219 473.574219 637.015625 473.574219 C 634.09375 473.574219 632.035156 471.914062 632.035156 468.292969 L 632.035156 461.660156 L 635.164062 461.660156 L 635.164062 467.832031 C 635.164062 469.8125 636.101562 470.6875 637.730469 470.6875 C 639.355469 470.6875 640.636719 469.679688 640.636719 467.503906 L 640.636719 461.667969 L 643.765625 461.667969 L 643.765625 473.402344 Z M 659.410156 473.394531 L 656.28125 473.394531 L 656.28125 467.160156 C 656.28125 465.25 655.355469 464.375 653.769531 464.375 C 652.039062 464.375 650.804688 465.382812 650.804688 467.558594 L 650.804688 473.394531 L 647.675781 473.394531 L 647.675781 461.660156 L 650.804688 461.660156 L 650.804688 463.039062 C 651.703125 462.039062 653.058594 461.488281 654.621094 461.488281 C 657.34375 461.488281 659.410156 463.101562 659.410156 466.683594 L 659.410156 473.402344 Z M 665.664062 473.394531 L 662.535156 473.394531 L 662.535156 461.660156 L 665.664062 461.660156 Z M 664.320312 459.855469 C 663.046875 459.855469 662.191406 459.019531 662.191406 457.945312 C 662.191406 456.875 663.046875 456.039062 664.320312 456.039062 C 665.59375 456.039062 666.445312 456.828125 666.445312 457.882812 C 666.445312 459.027344 665.59375 459.863281 664.320312 459.863281 Z M 672.703125 473.394531 L 669.574219 473.394531 L 669.574219 456.96875 L 672.703125 456.96875 Z M 678.960938 473.394531 L 675.832031 473.394531 L 675.832031 456.96875 L 678.960938 456.96875 Z M 693.039062 473.394531 L 689.910156 473.394531 L 689.910156 471.898438 C 689.285156 472.996094 688.085938 473.574219 686.398438 473.574219 C 683.699219 473.574219 682.089844 472.015625 682.089844 469.945312 C 682.089844 467.871094 683.527344 466.355469 687.039062 466.355469 L 689.699219 466.355469 C 689.699219 464.859375 688.847656 463.992188 687.039062 463.992188 C 685.820312 463.992188 684.550781 464.414062 683.714844 465.101562 L 682.519531 462.671875 C 683.785156 461.730469 685.648438 461.222656 687.492188 461.222656 C 691.003906 461.222656 693.046875 462.914062 693.046875 466.550781 L 693.046875 473.386719 Z M 699.9375 473.488281 C 697.941406 473.488281 695.917969 472.941406 694.820312 472.210938 L 695.964844 469.757812 C 697.019531 470.4375 698.621094 470.898438 700.070312 470.898438 C 701.648438 470.898438 702.242188 470.484375 702.242188 469.828125 C 702.242188 467.894531 695.109375 469.875 695.109375 465.148438 C 695.109375 462.914062 697.128906 461.332031 700.578125 461.332031 C 702.203125 461.332031 704.003906 461.707031 705.121094 462.367188 L 703.980469 464.796875 C 702.8125 464.140625 701.65625 463.921875 700.578125 463.921875 C 699.042969 463.921875 698.378906 464.40625 698.378906 465.015625 C 698.378906 467.035156 705.511719 465.078125 705.511719 469.734375 C 705.511719 471.929688 703.472656 473.488281 699.9375 473.488281 Z M 699.9375 473.488281 " fill-opacity="1" fill-rule="nonzero"/><path fill="#005ac4" d="M 684.667969 470.085938 C 684.667969 470.9375 685.398438 471.507812 686.601562 471.507812 C 687.742188 471.507812 688.730469 470.984375 689.128906 469.90625 L 689.128906 468.699219 L 686.78125 468.699219 C 685.179688 468.699219 684.675781 469.296875 684.675781 470.085938 Z M 684.667969 470.085938 " fill-opacity="1" fill-rule="nonzero"/></svg>